<?xml version="1.0" encoding="UTF-8" standalone="no"?>
<!-- Created with Inkscape (http://www.inkscape.org/) -->

<svg
   xmlns:dc="http://purl.org/dc/elements/1.1/"
   xmlns:cc="http://creativecommons.org/ns#"
   xmlns:rdf="http://www.w3.org/1999/02/22-rdf-syntax-ns#"
   xmlns:svg="http://www.w3.org/2000/svg"
   xmlns="http://www.w3.org/2000/svg"
   version="1.1"
   width="704.30713"
   height="909.22272"
   id="svg2">
  <defs
     id="defs4" />
  <metadata
     id="metadata7">
    <rdf:RDF>
      <cc:Work
         rdf:about="">
        <dc:format>image/svg+xml</dc:format>
        <dc:type
           rdf:resource="http://purl.org/dc/dcmitype/StillImage" />
        <dc:title></dc:title>
      </cc:Work>
    </rdf:RDF>
  </metadata>
  <g
     transform="translate(-24.003779,-39.312409)"
     id="layer1">
    <path
       d="m 122.03772,65.861565 c -75.434613,52.807885 -95.773754,71.302415 3.2212,99.586685 98.99494,28.28427 321.2285,-62.62946 321.2285,-62.62946 0,0 131.31984,-52.527932 181.82746,16.16244 50.50763,68.69037 82.04198,196.41856 44.44671,284.86302 -30.25843,71.18422 -74.75128,129.29952 -189.90867,133.34013 -115.15739,4.04061 -72.73099,-153.54318 -72.73099,-153.54318 0,0 42.42641,-129.29953 135.36044,-119.198 92.93404,10.10152 -14.14213,-129.29953 -141.42135,-94.95434 -127.27922,34.34518 -183.84777,80.8122 -206.07112,121.2183 -22.22336,40.40611 -42.06243,226.23742 -26.26397,305.06607 8.77013,43.75982 58.20627,196.1403 171.72594,270.72088 73.8225,48.50019 181.82745,2.02031 181.82745,2.02031 0,0 94.95434,-12.12183 78.7919,-155.56349 -16.16244,-143.44166 -111.68403,-138.77778 -139.9683,-138.77778 -28.28427,0 83.39976,-156.18677 83.39976,-156.18677 0,0 127.27922,-189.90867 107.07617,16.16245 C 634.3758,640.21994 864.69058,888.71747 591.94939,941.2454 319.2082,993.77334 -174.96291,629.73349 113.54319,880.67109 402.04929,1131.6087 430.22166,-149.88212 122.03772,65.861565 z"
       id="path2985"
       style="fill:none;stroke:#ff0000;stroke-width:4;stroke-linecap:butt;stroke-linejoin:miter;stroke-opacity:1" />
  </g>
</svg>
